<?xml version="1.0" encoding="UTF-8" standalone="no"?>
<svg
   id="Layer_1"
   data-name="Layer 1"
   viewBox="0 0 160 132"
   width="160"
   height="132"
   class="illustration styles_illustrationTablet__1DWOa"
   version="1.1"
   sodipodi:docname="Web development _Monochromatic.svg"
   inkscape:version="1.1 (c68e22c387, 2021-05-23)"
   xmlns:inkscape="http://www.inkscape.org/namespaces/inkscape"
   xmlns:sodipodi="http://sodipodi.sourceforge.net/DTD/sodipodi-0.dtd"
   xmlns:xlink="http://www.w3.org/1999/xlink"
   xmlns="http://www.w3.org/2000/svg"
   xmlns:svg="http://www.w3.org/2000/svg"
   xmlns:rdf="http://www.w3.org/1999/02/22-rdf-syntax-ns#"
   xmlns:cc="http://creativecommons.org/ns#"
   xmlns:dc="http://purl.org/dc/elements/1.1/">
  <sodipodi:namedview
     id="namedview188"
     pagecolor="#ffffff"
     bordercolor="#666666"
     borderopacity="1.0"
     inkscape:pageshadow="2"
     inkscape:pageopacity="0.0"
     inkscape:pagecheckerboard="0"
     showgrid="false"
     inkscape:zoom="3.9699067"
     inkscape:cx="104.9143"
     inkscape:cy="70.530625"
     inkscape:window-width="1920"
     inkscape:window-height="1010"
     inkscape:window-x="-7"
     inkscape:window-y="-7"
     inkscape:window-maximized="1"
     inkscape:current-layer="g1597" />
  <defs
     id="defs27">
    <linearGradient
       id="linear-gradient"
       x1="475.01001"
       y1="246.39999"
       x2="410.51001"
       y2="296.41"
       gradientUnits="userSpaceOnUse">
      <stop
         offset="0"
         stop-color="#010101"
         stop-opacity="0"
         id="stop2" />
      <stop
         offset="0.95"
         stop-color="#010101"
         id="stop4" />
    </linearGradient>
    <linearGradient
       id="linear-gradient-2"
       x1="469.60001"
       y1="233.13"
       x2="343.09"
       y2="310.39999"
       xlink:href="#linear-gradient" />
    <linearGradient
       id="linear-gradient-3"
       x1="92.050003"
       y1="248.63"
       x2="166.83"
       y2="274.79999"
       xlink:href="#linear-gradient" />
    <linearGradient
       id="linear-gradient-4"
       x1="109.42"
       y1="240.94"
       x2="272.54001"
       y2="300.29001"
       xlink:href="#linear-gradient" />
    <linearGradient
       id="linear-gradient-5"
       x1="266.42001"
       y1="253.11"
       x2="267.04999"
       y2="321.66"
       gradientUnits="userSpaceOnUse">
      <stop
         offset="0"
         stop-color="#fff"
         stop-opacity="0"
         id="stop10" />
      <stop
         offset="0.95"
         stop-color="#fff"
         id="stop12" />
    </linearGradient>
    <linearGradient
       id="linear-gradient-6"
       x1="363.42999"
       y1="320.76001"
       x2="367.87"
       y2="212.33"
       xlink:href="#linear-gradient" />
    <linearGradient
       id="linear-gradient-7"
       x1="263.85999"
       y1="343.48999"
       x2="275.70001"
       y2="235.67999"
       xlink:href="#linear-gradient" />
    <linearGradient
       id="linear-gradient-8"
       x1="324.23999"
       y1="294.23001"
       x2="338.81"
       y2="294.23001"
       xlink:href="#linear-gradient" />
    <linearGradient
       id="linear-gradient-9"
       x1="352.35999"
       y1="211.36"
       x2="374.28"
       y2="211.36"
       gradientUnits="userSpaceOnUse">
      <stop
         offset="0"
         stop-color="#e5c6d6"
         id="stop18" />
      <stop
         offset="0.42"
         stop-color="#ead4d0"
         id="stop20" />
      <stop
         offset="1"
         stop-color="#f0e9cb"
         id="stop22" />
    </linearGradient>
    <linearGradient
       id="linear-gradient-10"
       x1="297.94"
       y1="276.64001"
       x2="320.51001"
       y2="276.64001"
       xlink:href="#linear-gradient-9" />
    <linearGradient
       id="linear-gradient-11"
       x1="348"
       y1="278.72"
       x2="375.69"
       y2="258.73999"
       xlink:href="#linear-gradient" />
  </defs>
  <title
     id="title29">Code html</title>
  <metadata
     id="metadata1293">
    <rdf:RDF>
      <cc:Work
         rdf:about="">
        <dc:title>Code html</dc:title>
      </cc:Work>
    </rdf:RDF>
  </metadata>
  <g
     id="g1187"
     transform="matrix(0.29778357,0,0,0.32026713,-129.01682,109.1039)">
    <path
       d="m 944.39904,-4.9776658 c 9.18,-10.8200002 17.11,-23.0000002 21.22,-36.5600002 9.18,-30.38 -1.78,-62.999994 -15.33,-91.749994 -13,-27.54 -35.81,-63.39 -36.28,-94.53 -0.09,-5.62 1.38,-11.14 2.26,-16.7 3.66749,-24.5293 -4.19706,-49.37773 -21.31,-67.33 -13.51221,-13.69162 -31.46394,-22.11613 -50.63,-23.76 -60.07,-5.47 -128.75568,25.62204 -162.93,37.04408 -29.50385,14.13059 -59.51526,12.77972 -108.12402,6.56605 -24.33322,-5.43008 -100.04598,-32.25013 -120.22598,1.38987 -20.18,33.64 -22.28,118.5 -7.23,154.73 5.56,13.39 13.52,25.84 17.29,39.839994 4.14,15.4 2.93,31.75 0.18,47.46 -2.19,12.54 -5.35,25.22 -3.66,37.84 2,15.0000002 10.77,28.38 21.5,39.05 29.7,29.54 74.1,40.4 115.91,37.86 41.81,-2.54 81.89,-17 121,-31.93 9.4,-3.6 18.85,-7.26 28.78,-8.93 11.35,-1.9 23,-1.13 34.43,-0.15 32.12,2.71 65.71,12.56 97.64,13.09 25.03,0.42 50.37,-25.37 65.51,-43.2299998 z"
       fill="#6cb533"
       opacity="0.24"
       style="isolation:isolate"
       id="path31"
       sodipodi:nodetypes="cccccccccscccccsccccc" />
  </g>
  <g
     id="g1597"
     transform="matrix(0.3699887,0,0,0.3699887,9.0722194,12.914542)">
    <ellipse
       cx="88.400002"
       cy="256.54001"
       rx="56.709999"
       ry="10.74"
       fill="#e6e6e6"
       opacity="0.45"
       id="ellipse1403" />
    <rect
       x="91.169998"
       y="76.300003"
       width="209.10001"
       height="137.39999"
       fill="#e6e6e6"
       id="rect1405"
       style="fill:#f9f9f9"
       ry="9.6282253" />
    <path
       d="m 266.38,76.3 -49.25,0.2 -7.88,11.09 -74.25,68.19 6.1,11.85 -20.85,8.22 H 99.93 L 97.24,213.7 H 121 l 3.36,-22.1 C 135,155.78 179.22397,71.585308 224.48977,106.62795 L 247.63,101.33 l 0.81,4.59 c 0,0 7.91,-2.18 7.58,-9.55 C 255.69,89 255,79.85 266.38,76.3 Z"
       opacity="0.08"
       id="path1413"
       style="opacity:0.121951;fill:#666666"
       sodipodi:nodetypes="cccccccccccccsc" />
    <circle
       cx="101.28"
       cy="85.419998"
       r="3.4200001"
       fill="#24285b"
       id="circle1407" />
    <circle
       cx="111.44"
       cy="85.419998"
       r="3.4200001"
       fill="#6cb533"
       id="circle1409" />
    <circle
       cx="121.02"
       cy="85.419998"
       r="3.4200001"
       fill="#ffd200"
       id="circle1411" />
    <path
       d="M 225.74,48.37 C 224.53,58.06 219.53,78.08 199,87 l 3,5 c 0,0 28.57,-9 35.46,-32 3.09,-10.35 1.12,-14.84 -2,-16.66 a 6.58,6.58 0 0 0 -9.72,5.03 z"
       fill="#6cb533"
       id="path1415" />
    <path
       d="M 225.74,48.37 C 224.53,58.06 219.53,78.08 199,87 l 3,5 c 0,0 28.57,-9 35.46,-32 3.09,-10.35 1.12,-14.84 -2,-16.66 a 6.58,6.58 0 0 0 -9.72,5.03 z"
       fill="#ffffff"
       opacity="0.2"
       id="path1417" />
    <polygon
       points="237.59,34.4 229.84,27.52 228.36,33.05 233.27,39.04 "
       fill="#f4a28c"
       id="polygon1419" />
    <path
       d="m 224.9,22.05 a 4.57,4.57 0 0 0 -5.11,5.72 c 0.91,3.5 2.87,8.27 6.61,6.63 5.71,-2.5 2.71,-10 2.71,-10 a 8.35,8.35 0 0 0 -4.21,-2.35 z"
       fill="#f4a28c"
       id="path1421" />
    <path
       d="m 232.49,68.94 -9.74,5 a 7,7 0 0 0 -2.86,9.66 l 8.75,15.15 4.26,-3 -5,-13.82 a 1.73,1.73 0 0 1 1.21,-2.28 l 9.71,-2.37 -1.73,4.6 a 9.64,9.64 0 0 0 1,8.78 l 9,13.42 3.41,-2.09 -4.33,-11.89 a 7.6,7.6 0 0 1 1.53,-7.73 l 4.69,-5.14 z"
       fill="#24285b"
       id="path1423" />
    <rect
       x="269.60748"
       y="193.66878"
       width="60.18494"
       height="39.407055"
       fill="#f2f2f2"
       id="rect1425-4-2"
       style="opacity:0.4;fill:#6cb533;fill-opacity:1;stroke-width:1.04677"
       ry="5.8963919" />
    <rect
       x="268.46573"
       y="193.59999"
       width="58.5"
       height="37"
       fill="#f2f2f2"
       id="rect1425-4"
       style="fill:#ffffff"
       ry="5.5362296" />
    <path
       d="m 217.61,23.32 c 0,0 -1.58,5.08 3.92,3.83 5.5,-1.25 5.08,-3 5.08,-3 0,0 0.42,6 3.17,4.67 2.75,-1.33 1.17,-4.6 0,-6.84 -1.17,-2.24 -1.86,-2.91 -5,-3.24 -3.14,-0.33 -6.78,1.5 -7.17,4.58 z"
       fill="#24285b"
       id="path1429" />
    <path
       d="m 226.7,27.65 c 0,0 -0.23,-1.71 1.42,-1.38 1.65,0.33 1,2.71 0,2.88 -1,0.17 -1.42,-1.5 -1.42,-1.5 z"
       fill="#f4a28c"
       id="path1431" />
    <polygon
       points="78.37,168.7 76.27,155.96 81.73,157.66 84.18,165.01 "
       fill="#f4a28c"
       id="polygon1433" />
    <path
       d="m 74.28,148.86 a 4.58,4.58 0 0 1 7.57,-1.27 c 2.47,2.64 5.45,6.85 2.08,9.13 -5.17,3.5 -9.91,-3 -9.91,-3 a 8.35,8.35 0 0 1 0.26,-4.86 z"
       fill="#f4a28c"
       id="path1435" />
    <path
       d="m 78.06,153.37 c 0,0 -1.33,-1.11 -1.93,0.46 -0.6,1.57 1.74,2.34 2.44,1.54 0.7,-0.8 -0.51,-2 -0.51,-2 z"
       fill="#f4a28c"
       id="path1437" />
    <path
       d="m 232.23,37.77 5.36,-3.37 c 0,0 17.41,-5.95 22.91,-0.48 5.5,5.47 5.89,26.11 -8.11,43.31 l -19.9,-8.29 c 0,0 0.4,-9.9 -2.91,-12.4 -3.31,-2.5 -7.38,-10 2.65,-18.77 z"
       fill="#6cb533"
       id="path1439" />
    <path
       d="m 229.64,98 c 0,0 -1.09,5.06 0.86,4.88 1.95,-0.18 2.4,-7.18 2.4,-7.18 z"
       fill="#6cb533"
       id="path1441" />
    <path
       d="m 247.19,103.85 c 0,0 -1.09,5.05 0.86,4.88 1.95,-0.17 2.39,-7.18 2.39,-7.18 z"
       fill="#6cb533"
       id="path1443" />
    <path
       d="m 274.81,73.77 c 0,0 -3.36,1.45 -2.12,3.11 1.24,1.66 5.49,-0.58 5.49,-0.58 l 0.26,-2.53 z"
       fill="#f4a28c"
       id="path1445" />
    <path
       d="m 199.41,87.59 c 0,0 -5.52,0.45 -4.36,1.72 a 5.94,5.94 0 0 0 2.1,1.61 c 0,0 -4,4.47 -1.09,5.36 2.91,0.89 5.75,-4.68 5.75,-4.68 z"
       fill="#f4a28c"
       id="path1447" />
    <rect
       x="116.77"
       y="105.85"
       width="107.16"
       height="42.5"
       transform="matrix(0.91,-0.42,0.42,0.91,-37.5,82.72)"
       fill="#ffd200"
       id="rect1449"
       ry="8.1856689" />
    <rect
       x="155.02"
       y="111.38"
       width="51.5"
       height="7"
       transform="rotate(-24.68,180.74001,114.86023)"
       fill="#ffffff"
       opacity="0.58"
       id="rect1451" />
    <rect
       x="161.07001"
       y="124.56"
       width="51.5"
       height="7"
       transform="rotate(-24.68,186.79007,128.03865)"
       fill="#ffffff"
       opacity="0.58"
       id="rect1453" />
    <circle
       cx="142.03999"
       cy="141.07001"
       r="11.12"
       fill="#ffffff"
       id="circle1455" />
    <polyline
       points="288.24 202.33 280.44 209.91 288.24 217.5"
       fill="none"
       stroke="#a5a5a5"
       stroke-linecap="round"
       stroke-linejoin="round"
       stroke-width="2"
       id="polyline1457" />
    <polyline
       points="305.11 202.33 312.91 209.91 305.11 217.5"
       fill="none"
       stroke="#a5a5a5"
       stroke-linecap="round"
       stroke-linejoin="round"
       stroke-width="2"
       id="polyline1459" />
    <path
       d="m 191.68,64.18 c 0,0 -9.61,-2.58 -11.68,-11.5 0,0 14.85,-3.07 15.34,12.27 z"
       fill="#6cb533"
       opacity="0.58"
       id="path1461" />
    <path
       d="m 192.85,63.22 c 0,0 -6.75,-10.57 -0.89,-20.5 0,0 11.33,7.13 6.37,20.5 z"
       fill="#6cb533"
       opacity="0.73"
       id="path1463" />
    <path
       d="m 194.58,63.22 c 0,0 3.49,-11.2 14.19,-13.37 0,0 2,7.26 -6.88,13.37 z"
       fill="#6cb533"
       id="path1465" />
    <line
       x1="299.70999"
       y1="202.33"
       x2="292.23001"
       y2="217.5"
       fill="none"
       stroke="#a5a5a5"
       stroke-linecap="round"
       stroke-linejoin="round"
       stroke-width="2"
       id="line1467" />
    <rect
       x="104.69"
       y="100.42"
       width="29.309999"
       height="5.5"
       fill="#cecece"
       opacity="0.63"
       id="rect1469" />
    <path
       d="m 77.07,167.25 c 0,0 -17.17,10.4 -19.42,34.8 a 8.46,8.46 0 0 0 6.41,9 L 84.18,216 Z"
       fill="#6cb533"
       id="path1471" />
    <path
       d="m 77.07,167.25 c 0,0 -17.17,10.4 -19.42,34.8 a 8.46,8.46 0 0 0 6.41,9 L 84.18,216 Z"
       fill="#ffffff"
       opacity="0.2"
       id="path1473" />
    <polygon
       points="201.87,76.3 203.62,63 187.62,63 189.62,76.3 "
       fill="#24285b"
       id="polygon1475" />
    <path
       d="m 78.79,151.46 c 0,0 2.74,7.86 -2.05,7.37 -4.79,-0.49 -2.16,-3.87 -4.54,-7.37 -2.38,-3.5 -1.12,-5.86 2.5,-8.93 1.67,-1.41 2.79,-2.06 3.45,-2.81 a 2.57,2.57 0 0 1 4.31,0.61 c 1.24,3.02 1.25,7.06 -3.67,11.13 z"
       fill="#24285b"
       id="path1477" />
    <rect
       x="50"
       y="198.25"
       width="34.18"
       height="24.5"
       transform="matrix(0.97,-0.25,0.25,0.97,-50.55,23.49)"
       fill="#ffd200"
       id="rect1481"
       ry="3.6249471" />
    <polygon
       points="81.44,213.05 72.9,196.34 67.09,197.85 70.89,213.7 69.9,222.43 78.79,220.13 "
       opacity="0.08"
       id="polygon1483" />
    <path
       d="m 73.1,172.36 a 13.79,13.79 0 0 1 8.67,-7.56 c 7.34,-2.21 21.28,-6.83 25.4,0 5.64,9.4 -3,46.31 -3,46.31 l -24.67,1.91 c 0,0 -13.61,-24.44 -6.4,-40.66 z"
       fill="#6cb533"
       id="path1485" />
    <polygon
       points="95.75,253.55 91.17,220.6 79.83,213.05 104.13,211.14 100.88,253.55 "
       fill="#24285b"
       id="polygon1487" />
    <polygon
       points="78.25,253.55 90.13,219.91 79.83,213.05 72.75,253.55 "
       fill="#24285b"
       id="polygon1489" />
    <rect
       x="48.43512"
       y="168.96851"
       width="107.40084"
       height="42.595516"
       transform="rotate(-24.77514)"
       fill="#ffd200"
       id="rect1449-1"
       ry="8.2040663"
       style="opacity:0.4;stroke-width:1.00225" />
    <path
       d="M 92.44,170.45 A 7,7 0 0 1 99,161.32 c 3.14,-0.1 6.75,0.44 9.52,2.68 6.17,5 26.4,8.4 44.66,-8.31 l 3.51,5.39 c 0,0 -20.74,27 -53.22,19.24 a 15.2,15.2 0 0 1 -10.9,-9.56 c -0.05,-0.1 -0.09,-0.21 -0.13,-0.31 z"
       fill="#6cb533"
       id="path1491" />
    <path
       d="M 92.44,170.45 A 7,7 0 0 1 99,161.32 c 3.14,-0.1 6.75,0.44 9.52,2.68 6.17,5 26.4,8.4 44.66,-8.31 l 3.51,5.39 c 0,0 -20.74,27 -53.22,19.24 a 15.2,15.2 0 0 1 -10.9,-9.56 c -0.05,-0.1 -0.09,-0.21 -0.13,-0.31 z"
       fill="#ffffff"
       opacity="0.2"
       id="path1493" />
    <path
       d="m 83.9,164.15 c 0,0 -11.54,37.17 21.78,39.63 l -1.55,7.36 -24.67,1.91 a 64,64 0 0 1 -8.33,-32.82 c 0,0 0.21,-9.48 6.89,-13.67 a 15.09,15.09 0 0 1 5.88,-2.41 z"
       opacity="0.08"
       id="path1495" />
    <path
       d="m 73.75,253.55 -3.41,2.51 a 0.75,0.75 0 0 0 0.44,1.36 h 5.72 a 0.76,0.76 0 0 0 0.75,-0.75 v -3.12 z"
       fill="#6cb533"
       id="path1497" />
    <path
       d="m 100.74,253.55 3.21,2.51 a 0.76,0.76 0 0 1 -0.47,1.36 h -4.07 a 2.18,2.18 0 0 1 -2.17,-2.18 v -1.69 z"
       fill="#6cb533"
       id="path1499" />
    <rect
       x="268.42947"
       y="99.056519"
       width="73.111404"
       height="77.22776"
       fill="#f2f2f2"
       id="rect1501-2"
       ry="6.9790344"
       style="opacity:0.4;fill:#6cb533;fill-opacity:1;stroke-width:1.02095" />
    <rect
       x="266.38"
       y="99.222336"
       width="72.629997"
       height="74.527664"
       fill="#f2f2f2"
       id="rect1501"
       ry="6.7350278"
       style="stroke-width:0.999649" />
    <rect
       x="279.5"
       y="117.57"
       width="44.75"
       height="2.6800001"
       fill="#a5a5a5"
       id="rect1503" />
    <rect
       x="279.5"
       y="134.5"
       width="44.75"
       height="2.6800001"
       fill="#a5a5a5"
       id="rect1505" />
    <rect
       x="279.5"
       y="151.42999"
       width="44.75"
       height="2.6800001"
       fill="#a5a5a5"
       id="rect1507" />
    <rect
       x="318"
       y="112.62"
       width="7.8499999"
       height="12.58"
       rx="3.9200001"
       ry="3.9200001"
       fill="#24285b"
       id="rect1509" />
    <rect
       x="300.26999"
       y="129.55"
       width="7.8499999"
       height="12.58"
       rx="3.9200001"
       ry="3.9200001"
       fill="#6cb533"
       id="rect1511" />
    <rect
       x="288.26999"
       y="146.49001"
       width="7.8499999"
       height="12.58"
       rx="3.9200001"
       ry="3.9200001"
       fill="#ffd200"
       id="rect1513" />
    <rect
       x="163.38"
       y="177.78999"
       width="81.970001"
       height="18.68"
       fill="#ffffff"
       id="rect1515" />
    <rect
       x="217.39999"
       y="177.78999"
       width="27.950001"
       height="18.68"
       fill="#24285b"
       id="rect1517"
       style="fill:#6cb533;fill-opacity:1"
       ry="3.6105845" />
    <path
       d="m 155.77,159.69 c 0,0 4.28,1.4 5.19,-4.9 l -7.27,1.71 z"
       fill="#f4a28c"
       id="path1519" />
    <path
       d="m 240.69,72.35 c 0,0 8.7,-1.66 11.7,-13.66 3,-12 -3.39,-21.53 2.78,-23 6.17,-1.47 8.73,14.18 8.73,14.18 0,0 0.24,12.24 -11.51,27.38 z"
       opacity="0.08"
       id="path1521" />
    <path
       d="m 259.17,32.85 c 5.12,1.82 13.12,5.44 18.52,11.57 a 16,16 0 0 1 3.81,12.89 l -2.42,16.46 h -5.75 l 0.26,-15 a 7.38,7.38 0 0 0 -5.19,-7.11 c -6.21,-1.9 -15.74,-6.12 -15.75,-14.12 a 4.9,4.9 0 0 1 6.52,-4.69 z"
       fill="#6cb533"
       id="path1523" />
    <path
       d="m 259.17,32.85 c 5.12,1.82 13.12,5.44 18.52,11.57 a 16,16 0 0 1 3.81,12.89 l -2.42,16.46 h -5.75 l 0.26,-15 a 7.38,7.38 0 0 0 -5.19,-7.11 c -6.21,-1.9 -15.74,-6.12 -15.75,-14.12 a 4.9,4.9 0 0 1 6.52,-4.69 z"
       fill="#ffffff"
       opacity="0.2"
       id="path1525" />
    <rect
       x="207.67"
       y="164.14999"
       width="37.330002"
       height="4.54"
       opacity="0.08"
       id="rect1527" />
  </g>
</svg>
